<?xml version="1.0" encoding="utf-8" ?>
<svg xmlns="http://www.w3.org/2000/svg" xmlns:xlink="http://www.w3.org/1999/xlink" width="64" height="64" viewBox="0 0 64 64">
	<defs>
		<clipPath id="clipPath0504435492">
			<path d="M0 0L64 0L64 64L0 64L0 0Z" fill-rule="nonzero" transform="matrix(1 0 0 1 0 0)"/>
		</clipPath>
	</defs>
	<g clip-path="url(#clipPath0504435492)">
		<path d="M56 61.5L56 64L0 64L0 61.5C0 60.6716 0.671625 60 1.5 60L4 60L4 15C4 13.3431 5.34312 12 7 12L18 12L18 3C18 1.34312 19.3431 0 21 0L35 0C36.6569 0 38 1.34312 38 3L38 12L49 12C50.6569 12 52 13.3431 52 15L52 60L54.5 60C55.3284 60 56 60.6716 56 61.5ZM38.5 24L33.5 24C32.6716 24 32 24.6716 32 25.5L32 30.5C32 31.3284 32.6716 32 33.5 32L38.5 32C39.3284 32 40 31.3284 40 30.5L40 25.5C40 24.6716 39.3284 24 38.5 24ZM17.5 32L22.5 32C23.3284 32 24 31.3284 24 30.5L24 25.5C24 24.6716 23.3284 24 22.5 24L17.5 24C16.6716 24 16 24.6716 16 25.5L16 30.5C16 31.3284 16.6716 32 17.5 32ZM30.5 48L25.5 48C24.6716 48 24 48.6716 24 49.5L24 60L32 60L32 49.5C32 48.6716 31.3284 48 30.5 48ZM38.5 36L33.5 36C32.6716 36 32 36.6716 32 37.5L32 42.5C32 43.3284 32.6716 44 33.5 44L38.5 44C39.3284 44 40 43.3284 40 42.5L40 37.5C40 36.6716 39.3284 36 38.5 36ZM24 37.5C24 36.6716 23.3284 36 22.5 36L17.5 36C16.6716 36 16 36.6716 16 37.5L16 42.5C16 43.3284 16.6716 44 17.5 44L22.5 44C23.3284 44 24 43.3284 24 42.5L24 37.5ZM22.75 12L26 12L26 15.25C26 15.4571 26.0732 15.6339 26.2197 15.7803C26.3661 15.9268 26.5429 16 26.75 16L29.25 16C29.4571 16 29.6339 15.9268 29.7803 15.7803C29.9268 15.6339 30 15.4571 30 15.25L30 12L33.25 12C33.4571 12 33.6339 11.9268 33.7803 11.7803C33.9268 11.6339 34 11.4571 34 11.25L34 8.75C34 8.54289 33.9268 8.36612 33.7803 8.21967C33.6339 8.07322 33.4571 8 33.25 8L30 8L30 4.75C30 4.54289 29.9268 4.36612 29.7803 4.21967C29.6339 4.07322 29.4571 4 29.25 4L26.75 4C26.5429 4 26.3661 4.07322 26.2197 4.21967C26.0732 4.36612 26 4.54289 26 4.75L26 8L22.75 8C22.5429 8 22.3661 8.07322 22.2197 8.21967C22.0732 8.36612 22 8.54289 22 8.75L22 11.25C22 11.4571 22.0732 11.6339 22.2197 11.7803C22.3661 11.9268 22.5429 12 22.75 12Z" fill-rule="nonzero" transform="matrix(1 0 0 1 4 0)" fill="rgb(37, 99, 235)"/>
	</g>
</svg>
