<?xml version="1.0" encoding="utf-8" ?>
<svg xmlns="http://www.w3.org/2000/svg" xmlns:xlink="http://www.w3.org/1999/xlink" width="48" height="48" viewBox="0 0 48 48">
	<defs>
		<clipPath id="clipPath7324101325">
			<path d="M0 0L48 0L48 48L0 48L0 0Z" fill-rule="nonzero" transform="matrix(1 0 0 1 0 0)"/>
		</clipPath>
	</defs>
	<g clip-path="url(#clipPath7324101325)">
		<path d="M23.25 0C10.4062 0 0 10.4062 0 23.25C0 36.0938 10.4062 46.5 23.25 46.5C36.0938 46.5 46.5 36.0938 46.5 23.25C46.5 10.4062 36.0938 0 23.25 0ZM30.75 15.75C32.4094 15.75 33.75 17.0906 33.75 18.75C33.75 20.4094 32.4094 21.75 30.75 21.75C29.0906 21.75 27.75 20.4094 27.75 18.75C27.75 17.0906 29.0906 15.75 30.75 15.75ZM15.75 15.75C17.4094 15.75 18.75 17.0906 18.75 18.75C18.75 20.4094 17.4094 21.75 15.75 21.75C14.0906 21.75 12.75 20.4094 12.75 18.75C12.75 17.0906 14.0906 15.75 15.75 15.75ZM34.0125 31.7063C31.3406 34.9125 27.4219 36.75 23.25 36.75C19.0781 36.75 15.1594 34.9125 12.4875 31.7063C11.2125 30.1781 13.5188 28.2656 14.7938 29.7844C16.8937 32.3063 19.9688 33.7406 23.25 33.7406C26.5312 33.7406 29.6062 32.2969 31.7063 29.7844C32.9625 28.2656 35.2781 30.1781 34.0125 31.7063Z" fill-rule="nonzero" transform="matrix(1 0 0 1 0.75 0.75)" fill="rgb(37, 99, 235)"/>
	</g>
</svg>
