<?xml version="1.0" encoding="utf-8" ?>
<svg xmlns="http://www.w3.org/2000/svg" xmlns:xlink="http://www.w3.org/1999/xlink" width="48" height="48" viewBox="0 0 48 48">
	<defs>
		<clipPath id="clipPath0085621333">
			<path d="M0 0L48 0L48 48L0 48L0 0Z" fill-rule="nonzero" transform="matrix(1 0 0 1 0 0)"/>
		</clipPath>
	</defs>
	<g clip-path="url(#clipPath0085621333)">
		<path d="M41.6237 9.02335C40.5915 4.78397 37.2072 1.33022 32.9978 0.237097C29.98 -0.546653 27.0915 0.715222 24.6409 2.51803C24.3362 2.7421 23.9884 2.86772 23.6565 3.03178L26.3116 4.73897C27.0072 5.18616 27.2097 6.11428 26.7615 6.81178C26.3434 7.46335 25.4237 7.73616 24.6887 7.26178L15.2659 1.20366C13.3253 0.186472 11.199 -0.333841 9.00249 0.237097C4.79311 1.33116 1.40874 4.78397 0.376547 9.02335C-0.57314 12.9252 0.337172 16.5993 2.39217 19.3762C4.58217 22.3358 5.45592 25.813 5.79436 29.4402C6.20686 33.8615 6.7628 38.2677 7.75748 42.5952L8.48874 45.778C8.7878 47.0783 9.94092 47.9999 11.2703 47.9999C12.58 47.9999 13.7219 47.1046 14.0397 45.8287L17.2712 32.8518C17.6987 31.1343 19.2362 29.9305 20.9987 29.9305C22.7612 29.9305 24.2987 31.1352 24.7262 32.8518L27.9578 45.8287C28.2756 47.1046 29.4175 47.9999 30.7272 47.9999C32.0565 47.9999 33.2097 47.0783 33.5087 45.778L34.24 42.5952C35.2347 38.2687 35.7897 33.8615 36.2031 29.4402C36.5415 25.8121 37.4153 22.3358 39.6053 19.3762C41.6631 16.6002 42.5734 12.9262 41.6237 9.02335Z" fill-rule="nonzero" transform="matrix(1 0 0 1 2.99939 9.06456e-05)" fill="rgb(37, 99, 235)"/>
	</g>
</svg>
