<?xml version="1.0" encoding="utf-8" ?>
<svg xmlns="http://www.w3.org/2000/svg" xmlns:xlink="http://www.w3.org/1999/xlink" width="173" height="32" viewBox="0 0 173 32">
	<defs>
		<clipPath id="clipPath8794652826">
			<path d="M0 0L32 0L32 32L0 32L0 0Z" fill-rule="nonzero" transform="matrix(1 0 0 1 0 0)"/>
		</clipPath>
	</defs>
	<g clip-path="url(#clipPath8794652826)">
		<path d="M27.7492 6.01556C27.061 3.18931 24.8048 0.886815 21.9985 0.158064C19.9867 -0.364435 18.061 0.476815 16.4273 1.67869C16.2242 1.82806 15.9923 1.91181 15.771 2.02119L17.541 3.15931C18.0048 3.45744 18.1398 4.07619 17.841 4.54119C17.5623 4.97556 16.9492 5.15744 16.4592 4.84119L10.1773 0.80244C8.88353 0.124315 7.46603 -0.22256 6.00166 0.158065C3.19541 0.88744 0.939157 3.18931 0.251032 6.01556C-0.382093 8.61681 0.224782 11.0662 1.59478 12.9174C3.05478 14.8906 3.63728 17.2087 3.86291 19.6268C4.13791 22.5743 4.50853 25.5118 5.17166 28.3968L5.65916 30.5187C5.85853 31.3856 6.62728 31.9999 7.51353 31.9999C8.38666 31.9999 9.14791 31.4031 9.35978 30.5524L11.5142 21.9012C11.7992 20.7562 12.8242 19.9537 13.9992 19.9537C15.1742 19.9537 16.1992 20.7568 16.4842 21.9012L18.6385 30.5524C18.8504 31.4031 19.6117 31.9999 20.4848 31.9999C21.371 31.9999 22.1398 31.3856 22.3392 30.5187L22.8267 28.3968C23.4898 25.5124 23.8598 22.5743 24.1354 19.6268C24.361 17.2081 24.9435 14.8906 26.4035 12.9174C27.7754 11.0668 28.3823 8.61744 27.7492 6.01556Z" fill-rule="nonzero" transform="matrix(1 0 0 1 1.99959 6.04304e-05)" fill="rgb(45, 91, 255)"/>
	</g>
	<path d="M7.70508 25L1.52344 25L1.52344 7.54492L7.75781 7.54492Q10.3887 7.54492 12.2871 8.58789Q14.1914 9.63086 15.2168 11.5879Q16.248 13.5391 16.248 16.2578Q16.248 18.9883 15.2168 20.9453Q14.1914 22.9023 12.2754 23.9512Q10.3652 25 7.70508 25ZM5.20898 21.8359L7.54688 21.8359Q9.19336 21.8359 10.3125 21.25Q11.4316 20.6641 12 19.4336Q12.5684 18.2031 12.5684 16.2578Q12.5684 14.3184 11.9941 13.0938Q11.4258 11.8691 10.3125 11.2891Q9.19922 10.709 7.55859 10.709L5.20898 10.709L5.20898 21.8359Z" fill-rule="nonzero" transform="matrix(1 0 0 1 40 0)" fill="rgb(255, 255, 255)"/>
	<path d="M24.8667 25.252Q22.8511 25.252 21.3921 24.4316Q19.939 23.6113 19.1538 22.0996Q18.3745 20.5879 18.3745 18.5137Q18.3745 16.4922 19.1597 14.9688Q19.9448 13.4453 21.3687 12.5957Q22.7983 11.7402 24.7202 11.7402Q26.021 11.7402 27.1401 12.1562Q28.2593 12.5664 29.0972 13.3984Q29.9409 14.2246 30.4097 15.4727Q30.8784 16.7148 30.8784 18.3848L30.8784 19.3809L19.8276 19.3809L19.8276 17.1309L27.4624 17.1309Q27.4565 16.3516 27.1167 15.748Q26.7769 15.1387 26.1733 14.793Q25.5757 14.4473 24.7847 14.4473Q23.9585 14.4473 23.3198 14.8281Q22.687 15.209 22.3296 15.8477Q21.9722 16.4805 21.9604 17.2539L21.9604 19.3926Q21.9604 20.3652 22.3237 21.0742Q22.6929 21.7832 23.355 22.1641Q24.0229 22.5449 24.9253 22.5449Q25.5347 22.5449 26.0327 22.375Q26.5366 22.1992 26.894 21.8652Q27.2573 21.5254 27.4448 21.0332L30.7964 21.25Q30.5444 22.4629 29.7534 23.3652Q28.9683 24.2617 27.7261 24.7598Q26.4897 25.252 24.8667 25.252Z" fill-rule="nonzero" transform="matrix(1 0 0 1 40 0)" fill="rgb(255, 255, 255)"/>
	<path d="M36.8784 17.4297L36.8784 25L33.2515 25L33.2515 11.9102L36.7085 11.9102L36.7085 14.2188L36.855 14.2188Q37.2945 13.0762 38.314 12.4082Q39.3394 11.7402 40.7984 11.7402Q42.1636 11.7402 43.1773 12.3379Q44.1968 12.9355 44.7534 14.0371Q45.3159 15.1387 45.3101 16.6621L45.3101 25L41.6831 25L41.6831 17.3066Q41.689 16.1113 41.0679 15.4316Q40.4527 14.752 39.357 14.752Q38.6245 14.752 38.062 15.0742Q37.5054 15.3906 37.1949 15.9883Q36.8843 16.5859 36.8784 17.4297Z" fill-rule="nonzero" transform="matrix(1 0 0 1 40 0)" fill="rgb(255, 255, 255)"/>
	<path d="M55.1358 11.9102L55.1358 14.6348L47.2491 14.6348L47.2491 11.9102L55.1358 11.9102ZM49.042 8.77539L52.669 8.77539L52.669 20.9746Q52.669 21.4785 52.8213 21.7598Q52.9795 22.0352 53.2549 22.1465Q53.5303 22.2578 53.8936 22.2578Q54.1573 22.2578 54.4092 22.2109Q54.667 22.1641 54.8018 22.1348L55.376 24.8418Q55.1006 24.9238 54.6026 25.0352Q54.1104 25.1523 53.4014 25.1816Q52.0889 25.2344 51.1045 24.8359Q50.1201 24.4316 49.5752 23.5879Q49.0303 22.7383 49.042 21.4551L49.042 8.77539Z" fill-rule="nonzero" transform="matrix(1 0 0 1 40 0)" fill="rgb(255, 255, 255)"/>
	<path d="M61.2253 25.2461Q59.9772 25.2461 58.9929 24.8125Q58.0143 24.373 57.446 23.5059Q56.8835 22.6387 56.8835 21.3438Q56.8835 20.2539 57.2819 19.5156Q57.6804 18.7715 58.3659 18.3203Q59.0573 17.8691 59.9421 17.6348Q60.8268 17.4004 61.7995 17.3066Q62.9362 17.1953 63.6335 17.0898Q64.3366 16.9844 64.653 16.7734Q64.9694 16.5566 64.9694 16.1348L64.9694 16.0879Q64.9694 15.2793 64.4597 14.834Q63.9499 14.3887 63.03 14.3887Q62.0456 14.3887 61.4655 14.8223Q60.8854 15.25 60.7038 15.9004L57.3405 15.625Q57.5983 14.4297 58.3425 13.5566Q59.0925 12.6836 60.2819 12.2148Q61.4772 11.7402 63.0417 11.7402Q64.1374 11.7402 65.1335 11.998Q66.1354 12.25 66.9147 12.7891Q67.694 13.3223 68.1452 14.1602Q68.5964 14.998 68.5964 16.1699L68.5964 25L65.1569 25L65.1569 23.1836L65.0515 23.1836Q64.735 23.7988 64.2077 24.2617Q63.6862 24.7246 62.9421 24.9883Q62.1979 25.2461 61.2253 25.2461ZM62.2682 22.7441Q63.071 22.7441 63.6804 22.4219Q64.2956 22.0996 64.6413 21.5547Q64.9929 21.0098 64.9929 20.3242L64.9929 18.9297Q64.8288 19.041 64.53 19.1348Q64.2311 19.2227 63.8679 19.293Q63.5046 19.3633 63.1354 19.4219Q62.7722 19.4746 62.4733 19.5156Q61.8347 19.6094 61.3542 19.8145Q60.8796 20.0195 60.61 20.3652Q60.3464 20.7109 60.3464 21.2207Q60.3464 21.9707 60.8854 22.3574Q61.4304 22.7441 62.2682 22.7441Z" fill-rule="nonzero" transform="matrix(1 0 0 1 40 0)" fill="rgb(255, 255, 255)"/>
	<path d="M75.0518 7.54492L75.0518 25L71.4249 25L71.4249 7.54492L75.0518 7.54492Z" fill-rule="nonzero" transform="matrix(1 0 0 1 40 0)" fill="rgb(255, 255, 255)"/>
	<path d="M93.4162 13.6562L89.6838 13.6562Q89.5783 12.9297 89.2619 12.3672Q88.9514 11.7988 88.4592 11.4004Q87.967 10.9961 87.3225 10.7852Q86.6779 10.5742 85.9221 10.5742Q84.5744 10.5742 83.5666 11.2422Q82.5588 11.9102 82.0022 13.1816Q81.4514 14.4531 81.4514 16.2754Q81.4514 18.1387 82.008 19.4102Q82.5705 20.6816 83.5725 21.3262Q84.5803 21.9707 85.9045 21.9707Q86.6428 21.9707 87.2756 21.7773Q87.9084 21.584 88.4006 21.209Q88.8986 20.8281 89.2268 20.2832Q89.5607 19.7324 89.6838 19.0352L93.4162 19.0527Q93.2697 20.2539 92.6955 21.3672Q92.1213 22.4746 91.1545 23.3535Q90.1877 24.2266 88.8518 24.7363Q87.5217 25.2402 85.84 25.2402Q83.508 25.2402 81.6682 24.1855Q79.8283 23.1309 78.7678 21.127Q77.7072 19.1172 77.7072 16.2754Q77.7072 13.4219 78.7795 11.418Q79.8576 9.41406 81.6975 8.35938Q83.5373 7.30469 85.84 7.30469Q87.3635 7.30469 88.6584 7.73242Q89.9592 8.1543 90.9611 8.96875Q91.9689 9.7832 92.6018 10.9609Q93.2404 12.1387 93.4162 13.6562Z" fill-rule="nonzero" transform="matrix(1 0 0 1 40 0)" fill="rgb(255, 255, 255)"/>
	<path d="M99.7311 25.2461Q98.483 25.2461 97.4986 24.8125Q96.5201 24.373 95.9518 23.5059Q95.3893 22.6387 95.3893 21.3438Q95.3893 20.2539 95.7877 19.5156Q96.1861 18.7715 96.8717 18.3203Q97.5631 17.8691 98.4479 17.6348Q99.3326 17.4004 100.305 17.3066Q101.442 17.1953 102.139 17.0898Q102.842 16.9844 103.159 16.7734Q103.475 16.5566 103.475 16.1348L103.475 16.0879Q103.475 15.2793 102.965 14.834Q102.456 14.3887 101.536 14.3887Q100.551 14.3887 99.9713 14.8223Q99.3912 15.25 99.2096 15.9004L95.8463 15.625Q96.1041 14.4297 96.8483 13.5566Q97.5983 12.6836 98.7877 12.2148Q99.983 11.7402 101.547 11.7402Q102.643 11.7402 103.639 11.998Q104.641 12.25 105.421 12.7891Q106.2 13.3223 106.651 14.1602Q107.102 14.998 107.102 16.1699L107.102 25L103.663 25L103.663 23.1836L103.557 23.1836Q103.241 23.7988 102.713 24.2617Q102.192 24.7246 101.448 24.9883Q100.704 25.2461 99.7311 25.2461ZM100.774 22.7441Q101.577 22.7441 102.186 22.4219Q102.801 22.0996 103.147 21.5547Q103.499 21.0098 103.499 20.3242L103.499 18.9297Q103.335 19.041 103.036 19.1348Q102.737 19.2227 102.374 19.293Q102.01 19.3633 101.641 19.4219Q101.278 19.4746 100.979 19.5156Q100.34 19.6094 99.86 19.8145Q99.3854 20.0195 99.1158 20.3652Q98.8522 20.7109 98.8522 21.2207Q98.8522 21.9707 99.3912 22.3574Q99.9361 22.7441 100.774 22.7441Z" fill-rule="nonzero" transform="matrix(1 0 0 1 40 0)" fill="rgb(255, 255, 255)"/>
	<path d="M109.931 25L109.931 11.9102L113.446 11.9102L113.446 14.1953L113.587 14.1953Q113.944 12.9766 114.782 12.3496Q115.626 11.7227 116.728 11.7227Q117.003 11.7227 117.313 11.7578Q117.63 11.7871 117.864 11.8457L117.864 15.0742Q117.618 14.9922 117.161 14.9336Q116.71 14.875 116.335 14.875Q115.538 14.875 114.905 15.2207Q114.278 15.5664 113.915 16.1816Q113.558 16.791 113.558 17.5938L113.558 25L109.931 25Z" fill-rule="nonzero" transform="matrix(1 0 0 1 40 0)" fill="rgb(255, 255, 255)"/>
	<path d="M125.086 25.252Q123.07 25.252 121.611 24.4316Q120.158 23.6113 119.373 22.0996Q118.594 20.5879 118.594 18.5137Q118.594 16.4922 119.379 14.9688Q120.164 13.4453 121.588 12.5957Q123.017 11.7402 124.939 11.7402Q126.24 11.7402 127.359 12.1562Q128.478 12.5664 129.316 13.3984Q130.16 14.2246 130.629 15.4727Q131.097 16.7148 131.097 18.3848L131.097 19.3809L120.047 19.3809L120.047 17.1309L127.681 17.1309Q127.676 16.3516 127.336 15.748Q126.996 15.1387 126.392 14.793Q125.795 14.4473 125.004 14.4473Q124.178 14.4473 123.539 14.8281Q122.906 15.209 122.549 15.8477Q122.191 16.4805 122.179 17.2539L122.179 19.3926Q122.179 20.3652 122.543 21.0742Q122.912 21.7832 123.574 22.1641Q124.242 22.5449 125.144 22.5449Q125.754 22.5449 126.252 22.375Q126.756 22.1992 127.113 21.8652Q127.476 21.5254 127.664 21.0332L131.015 21.25Q130.763 22.4629 129.972 23.3652Q129.187 24.2617 127.945 24.7598Q126.709 25.252 125.086 25.252Z" fill-rule="nonzero" transform="matrix(1 0 0 1 40 0)" fill="rgb(255, 255, 255)"/>
</svg>
