<?xml version="1.0" encoding="utf-8" ?>
<svg xmlns="http://www.w3.org/2000/svg" xmlns:xlink="http://www.w3.org/1999/xlink" width="48" height="48" viewBox="0 0 48 48">
	<defs>
		<clipPath id="clipPath5005380536">
			<path d="M0 0L48 0L48 48L0 48L0 0Z" fill-rule="nonzero" transform="matrix(1 0 0 1 0 0)"/>
		</clipPath>
	</defs>
	<g clip-path="url(#clipPath5005380536)">
		<path d="M21 24C27.6281 24 33 18.6281 33 12C33 5.37188 27.6281 0 21 0C14.3719 0 9 5.37188 9 12C9 18.6281 14.3719 24 21 24ZM9.75 39.75C9.75 40.9969 10.7531 42 12 42C13.2469 42 14.25 40.9969 14.25 39.75C14.25 38.5031 13.2469 37.5 12 37.5C10.7531 37.5 9.75 38.5031 9.75 39.75ZM30 27.0563L30 31.65C33.4219 32.3438 36 35.3812 36 39L36 42.9094C36 43.6219 35.4938 44.2406 34.7906 44.3813L31.7719 44.9813C31.3687 45.0656 30.975 44.8031 30.8906 44.3906L30.6 42.9188C30.5156 42.5156 30.7781 42.1125 31.1906 42.0375L33 41.6719L33 39C33 33.1125 24 32.8969 24 39.1781L24 41.6813L25.8094 42.0469C26.2125 42.1312 26.475 42.525 26.4 42.9281L26.1094 44.4C26.025 44.8031 25.6312 45.0656 25.2281 44.9906L22.3031 44.5969C21.5625 44.4937 21.0094 43.8656 21.0094 43.1062L21.0094 39C21.0094 35.3812 23.5875 32.3531 27.0094 31.65L27.0094 27.4125C26.8031 27.4781 26.5969 27.5156 26.3906 27.5906C24.7031 28.1812 22.8937 28.5094 21.0094 28.5094C19.125 28.5094 17.3156 28.1812 15.6281 27.5906C14.9344 27.3469 14.2312 27.1969 13.5094 27.1031L13.5094 34.7531C15.675 35.4 17.2594 37.3875 17.2594 39.7594C17.2594 42.6562 14.9062 45.0094 12.0094 45.0094C9.1125 45.0094 6.75937 42.6562 6.75937 39.7594C6.75937 37.3875 8.34375 35.4 10.5094 34.7531L10.5094 27.2156C4.54688 28.2188 0 33.3562 0 39.6L0 43.8C0 46.1156 1.88437 48 4.2 48L37.8 48C40.1156 48 42 46.1156 42 43.8L42 39.6C42 32.85 36.675 27.3844 30 27.0563Z" fill-rule="nonzero" transform="matrix(1 0 0 1 3 0)" fill="rgb(37, 99, 235)"/>
	</g>
</svg>
