<?xml version="1.0" encoding="utf-8" ?>
<svg xmlns="http://www.w3.org/2000/svg" xmlns:xlink="http://www.w3.org/1999/xlink" width="64" height="64" viewBox="0 0 64 64">
	<defs>
		<clipPath id="clipPath5253252564">
			<path d="M0 0L64 0L64 64L0 64L0 0Z" fill-rule="nonzero" transform="matrix(1 0 0 1 0 0)"/>
		</clipPath>
	</defs>
	<g clip-path="url(#clipPath5253252564)">
		<path d="M12.1402 45.3298C11.054 44.2435 11.6202 44.5498 9.00025 43.8485C7.8115 43.5298 6.7665 42.9173 5.8215 42.1835L0.150247 56.0885C-0.398503 57.4348 0.626497 58.8973 2.079 58.8423L8.66525 58.591L13.1952 63.376C14.1952 64.431 15.9502 64.1023 16.499 62.756L23.0052 46.8035C21.6502 47.5585 20.1465 48.001 18.5915 48.001C16.154 48.001 13.864 47.0523 12.1402 45.3298ZM47.8502 56.0885L42.179 42.1835C41.234 42.9185 40.189 43.5298 39.0002 43.8485C36.3665 44.5535 36.944 44.246 35.8602 45.3298C34.1365 47.0523 31.8452 48.001 29.4077 48.001C27.8527 48.001 26.349 47.5573 24.994 46.8035L31.5002 62.756C32.049 64.1023 33.8052 64.431 34.804 63.376L39.3352 58.591L45.9215 58.8423C47.374 58.8973 48.399 57.4335 47.8502 56.0885ZM32.8752 42.501C34.7852 40.5573 35.004 40.7248 37.724 39.9835C39.4603 39.5098 40.8177 38.1285 41.2827 36.361C42.2178 32.811 41.9753 33.2398 44.5265 30.6423C45.7978 29.3485 46.294 27.4623 45.829 25.6948C44.8953 22.1473 44.894 22.6423 45.829 19.091C46.294 17.3235 45.7978 15.4373 44.5265 14.1435C41.9753 11.546 42.2178 11.9735 41.2827 8.42476C40.8177 6.65726 39.4603 5.27601 37.724 4.80226C34.239 3.85101 34.659 4.09976 32.1052 1.50101C30.834 0.207258 28.9802 -0.298992 27.244 0.174758C23.7602 1.12476 24.2465 1.12601 20.7565 0.174758C19.0202 -0.298992 17.1665 0.206008 15.8952 1.50101C13.344 4.09851 13.764 3.85101 10.2777 4.80226C8.5415 5.27601 7.184 6.65726 6.719 8.42476C5.78524 11.9735 6.02649 11.546 3.47524 14.1435C2.20399 15.4373 1.7065 17.3235 2.17274 19.091C3.10649 22.636 3.10774 22.141 2.17274 25.6935C1.70774 27.461 2.20399 29.3473 3.47524 30.6423C6.02649 33.2398 5.78399 32.811 6.719 36.361C7.184 38.1285 8.5415 39.5098 10.2777 39.9835C13.0752 40.746 13.284 40.626 15.1252 42.501C16.779 44.1848 19.3552 44.486 21.3427 43.2285C22.154 42.7135 23.04 42.456 24.0009 42.456C24.9617 42.456 25.8478 42.7135 26.659 43.2285C28.6452 44.486 31.2215 44.1848 32.8752 42.501ZM12.2077 21.996C12.2077 15.3673 17.4877 9.99351 24.0002 9.99351C30.5127 9.99351 35.7927 15.3673 35.7927 21.996C35.7927 28.6248 30.5127 33.9985 24.0002 33.9985C17.4877 33.9985 12.2077 28.6248 12.2077 21.996Z" fill-rule="nonzero" transform="matrix(1 0 0 1 7.99975 -0.00101166)" fill="rgb(37, 99, 235)"/>
	</g>
</svg>
